<svg xmlns="http://www.w3.org/2000/svg" width="120" height="120" viewBox="0 0 200 200" version="1.1">
	<path d="M 19.500 18.680 C 13.847 19.947, 8.083 22.274, 6.159 24.067 C 1.754 28.170, 4.634 34.017, 12.043 36.012 C 17.410 37.457, 27.600 44.404, 33.765 50.820 C 39.088 56.360, 47 68.369, 47 70.908 C 47 71.618, 42.779 79.242, 37.620 87.850 C 25.761 107.636, 24.325 110.524, 22.511 118.219 C 16.124 145.307, 33.043 173.337, 60.131 180.547 C 67.885 182.611, 132.115 182.611, 139.869 180.547 C 162.384 174.555, 179.051 152.890, 178.985 129.701 C 178.967 123.173, 176.659 113.228, 173.884 107.719 C 172.716 105.398, 167.496 96.387, 162.286 87.693 C 155.314 76.061, 152.960 71.295, 153.373 69.648 C 154.302 65.947, 161.727 55.178, 166.952 49.952 C 172.829 44.075, 182.946 37.361, 187.957 36.012 C 195.350 34.021, 198.247 28.171, 193.862 24.086 C 189.857 20.355, 183.184 18.761, 169.500 18.265 C 154.450 17.721, 142.607 19.388, 128.897 23.981 L 120.215 26.890 114.858 24.752 C 107.287 21.730, 92.713 21.730, 85.142 24.752 L 79.785 26.890 71.138 23.993 C 58.838 19.872, 46.607 17.981, 33.119 18.116 C 26.729 18.180, 20.600 18.434, 19.500 18.680 M 43.275 27.566 C 51.029 29.445, 58.862 33.258, 62.727 37.037 L 65.902 40.141 68.922 36.821 C 70.582 34.994, 71.955 33.212, 71.971 32.860 C 72.041 31.323, 47.463 25.934, 41.066 26.083 C 37.915 26.157, 38.172 26.330, 43.275 27.566 M 146.868 27.509 C 137.544 29.367, 128 32.132, 128 32.977 C 128 33.369, 128.915 34.518, 130.032 35.529 C 131.150 36.541, 133.028 38.973, 134.206 40.934 C 135.384 42.895, 136.507 44.700, 136.701 44.944 C 136.896 45.189, 138.364 43.801, 139.964 41.860 C 143.764 37.250, 152.121 31.547, 159.557 28.491 L 165.500 26.047 159.500 26.118 C 156.200 26.156, 150.516 26.782, 146.868 27.509 M 90.324 31.380 C 84.660 33.232, 79.739 36.394, 76.137 40.497 C 72.285 44.884, 33.906 109.049, 31.575 115 C 24.706 132.533, 32.229 155.659, 48.351 166.566 C 58.611 173.508, 62.030 174, 100 174 C 130.835 174, 134.345 173.827, 140.145 172.025 C 154.932 167.430, 165.383 156.144, 169.505 140.320 C 172.185 130.032, 171.020 119.871, 166.030 110 C 160.994 100.037, 126.451 43.398, 123.251 39.856 C 115.976 31.804, 100.897 27.922, 90.324 31.380 M 172 32.600 C 159.325 35.983, 147.205 43.490, 143.595 50.195 L 141.754 53.611 144.772 58.460 L 147.790 63.308 149.540 59.904 C 154.147 50.947, 166.992 37.641, 175.056 33.471 C 176.675 32.634, 178 31.735, 178 31.474 C 178 31.213, 177.887 31.030, 177.750 31.066 C 177.613 31.102, 175.025 31.792, 172 32.600 M 30.870 37.562 C 38.080 42.982, 43.860 49.351, 48.737 57.253 C 50.698 60.431, 52.407 62.911, 52.533 62.765 C 53.757 61.356, 61 48.740, 61 48.017 C 61 45.870, 54.695 40.116, 50.257 38.213 C 45.213 36.050, 31.866 33, 27.443 33 C 25.089 33, 25.461 33.496, 30.870 37.562 M 67.310 73.077 C 65.316 74.354, 63.483 76.786, 62.424 79.560 C 60.823 83.751, 60.826 84.257, 62.479 88.585 C 64.550 94.007, 68.743 96.991, 74.300 96.996 C 81.884 97.004, 87.993 91.206, 87.993 84 C 87.993 73.850, 75.995 67.514, 67.310 73.077 M 118.299 72.960 C 106.991 79.854, 112.127 97, 125.500 97 C 130.882 97, 134.886 94.465, 137.057 89.684 C 139.448 84.417, 139.445 83.551, 137.021 78.544 C 133.522 71.316, 125.109 68.807, 118.299 72.960 M 70.557 81.223 C 68.540 84.102, 68.594 85.323, 70.829 87.345 C 75.524 91.595, 81.785 87.214, 79.182 81.500 C 77.674 78.190, 72.791 78.033, 70.557 81.223 M 120.818 81.500 C 119.073 85.330, 121.098 89, 124.956 89 C 127.050 89, 128.448 88.247, 129.592 86.500 C 131.109 84.184, 131.109 83.816, 129.592 81.500 C 128.448 79.753, 127.050 79, 124.956 79 C 122.728 79, 121.664 79.642, 120.818 81.500 M 91.404 114.766 C 81.907 118.162, 74.277 126.106, 71.431 135.562 C 69.470 142.078, 69.635 144.673, 72.381 150.571 C 80.055 167.052, 107.017 171.512, 122.379 158.841 C 126.751 155.235, 130.976 147.114, 130.990 142.288 C 131.019 132.968, 121.945 120.075, 112.381 115.844 C 105.804 112.935, 97.690 112.518, 91.404 114.766 M 91.158 123.566 C 82.976 127.708, 77.015 137.325, 78.385 144.174 C 81.428 159.389, 110.480 163.354, 120.099 149.866 C 127.548 139.422, 116.601 122.397, 101.706 121.260 C 97.518 120.940, 95.455 121.391, 91.158 123.566 M 86.384 137.442 C 85.521 139.691, 86.327 142.180, 88.313 143.393 C 90.887 144.965, 94.463 140.734, 92.950 137.907 C 91.747 135.658, 87.192 135.335, 86.384 137.442 M 108.082 137.847 C 106.537 140.733, 110.074 144.990, 112.687 143.391 C 113.764 142.732, 114.500 141.108, 114.500 139.391 C 114.500 136.998, 114.037 136.447, 111.817 136.190 C 109.961 135.976, 108.810 136.486, 108.082 137.847" stroke="none" fill="black" fill-rule="evenodd"/>
</svg>