<svg xmlns="http://www.w3.org/2000/svg" width="120" height="120" viewBox="0 0 200 200" version="1.1">
	<path d="M 53 23.534 C 43.177 26.244, 36.831 29.993, 29.500 37.414 C 19.074 47.970, 14.004 59.776, 13.802 73.967 C 13.730 79.036, 14.082 80.587, 15.544 81.656 C 17.076 82.776, 17.712 82.772, 19.438 81.630 C 21.122 80.515, 21.615 78.821, 22.125 72.383 C 23.946 49.436, 40.317 32.358, 62.434 30.336 C 67.068 29.912, 69.866 30.264, 74.283 31.826 C 80.222 33.927, 90.620 40.761, 94.924 45.392 C 98.331 49.057, 101.414 48.686, 106.777 43.965 C 119.959 32.362, 139.736 28.936, 154.248 35.742 C 172.032 44.081, 181.937 66.624, 176.610 86.632 C 173.286 99.115, 170.806 102.089, 134.740 136.852 C 116.110 154.808, 100.540 169.619, 100.139 169.765 C 99.739 169.911, 89.088 160.103, 76.470 147.971 C 57.492 129.723, 53.095 125.963, 51.015 126.206 C 47.539 126.612, 47.110 130.414, 50.168 133.711 C 51.450 135.095, 62.253 145.626, 74.172 157.114 C 93.604 175.841, 96.192 178, 99.201 178 C 101.087 178, 103.925 177.015, 105.684 175.750 C 112.683 170.714, 173.305 111.181, 176.978 105.736 C 183.247 96.443, 185.269 90.037, 185.773 77.872 C 186.107 69.806, 185.805 65.841, 184.521 61.424 C 180.820 48.694, 172.977 37.485, 163.273 31.057 C 146.983 20.267, 121.807 22.122, 104.056 35.420 C 102.161 36.839, 100.298 38, 99.915 38 C 99.531 38, 97.031 36.179, 94.359 33.954 C 91.686 31.729, 86.210 28.271, 82.188 26.271 C 75.885 23.136, 73.748 22.592, 66.688 22.326 C 61.526 22.130, 56.467 22.577, 53 23.534 M 69.334 82.436 C 65.575 92.088, 62.213 99.989, 61.862 99.993 C 61.511 99.997, 59.389 97.075, 57.148 93.500 C 51.392 84.320, 49.662 84.505, 43.326 94.974 L 38.500 102.948 30.372 102.974 C 21.019 103.004, 18.881 104.249, 20.832 108.530 C 21.918 110.913, 22.301 110.999, 31.729 110.985 C 37.103 110.976, 42.004 110.639, 42.619 110.235 C 43.234 109.831, 45.187 107.136, 46.957 104.246 C 48.728 101.356, 50.530 99.210, 50.962 99.477 C 51.394 99.744, 53.656 103.121, 55.989 106.981 C 59.236 112.356, 60.760 114, 62.492 114 C 63.737 114, 65.216 113.438, 65.778 112.750 C 66.341 112.063, 69.143 105.425, 72.004 98 C 74.865 90.575, 77.469 84.068, 77.792 83.539 C 78.115 83.010, 80.881 92.460, 83.939 104.539 L 89.500 126.500 92.500 126.500 C 95.326 126.500, 95.913 125.729, 102.623 113.195 L 109.746 99.891 112.536 104.695 C 114.071 107.338, 115.816 109.831, 116.413 110.235 C 117.011 110.639, 122.080 110.976, 127.679 110.985 C 135.613 110.997, 138.204 110.654, 139.429 109.429 C 141.220 107.637, 141.382 106.154, 140.022 104 C 139.319 102.887, 136.676 102.413, 129.767 102.161 L 120.460 101.823 116.211 94.411 C 111.919 86.924, 109.559 85.353, 106.955 88.250 C 106.337 88.938, 103.180 94.450, 99.939 100.500 C 96.699 106.550, 93.989 111.275, 93.917 111 C 93.846 110.725, 91.248 100.375, 88.144 88 L 82.500 65.500 79.334 65.193 L 76.168 64.886 69.334 82.436" stroke="none" fill="black" fill-rule="evenodd"/>
</svg>