<svg xmlns="http://www.w3.org/2000/svg" width="120" height="120" viewBox="0 0 200 200" version="1.1">
	<path d="M 11.459 12.880 C 6.653 15.062, 2.630 19.562, 0.961 24.619 C -0.672 29.567, 0.247 39.614, 2.782 44.529 C 4.912 48.658, 10.509 54.411, 15.250 57.345 C 17.617 58.809, 18.003 59.705, 18.018 63.773 C 18.028 66.373, 19.145 73.225, 20.500 79 C 23.549 91.995, 23.570 93.276, 20.750 94.513 C 18.182 95.639, 17.269 99.414, 19.046 101.555 C 19.978 102.679, 19.976 103.324, 19.036 104.456 C 17.187 106.684, 18.818 108.475, 20.944 106.550 C 22.560 105.088, 23.312 105.450, 31.014 111.393 C 45.187 122.329, 46.768 127.169, 42.057 145.196 C 38.167 160.079, 38.165 160, 42.500 160 L 46 160 46 172.500 C 46 183.667, 46.213 185.213, 48 187 C 50.398 189.398, 53.746 189.567, 56.777 187.443 C 58.880 185.971, 59 185.185, 59 172.943 L 59 160 61.500 160 L 64 160 64 172.943 C 64 185.185, 64.120 185.971, 66.223 187.443 C 69.254 189.567, 72.602 189.398, 75 187 C 76.787 185.213, 77 183.667, 77 172.500 L 77 160 80.500 160 C 82.983 160, 84 159.553, 84 158.462 C 84 157.616, 82.595 151.395, 80.878 144.637 C 77.797 132.511, 77.777 132.280, 79.386 126.925 C 80.282 123.941, 81.800 120.589, 82.758 119.476 C 85.512 116.277, 98.595 106, 99.914 106 C 100.570 106, 104.186 108.456, 107.948 111.459 C 121.666 122.404, 122.130 123.889, 122.910 159.333 C 123.460 184.365, 123.630 186.261, 125.441 187.583 C 127.917 189.390, 131.083 189.390, 133.559 187.583 C 135.336 186.285, 135.542 184.487, 136 166.333 C 136.422 149.593, 136.734 146.500, 138 146.500 C 139.264 146.500, 139.579 149.538, 140 165.840 C 140.487 184.672, 140.562 185.230, 142.861 187.090 C 146.152 189.752, 149.472 189.487, 151.927 186.365 C 153.890 183.870, 154.001 182.479, 154.016 160.115 C 154.038 126.355, 155.415 121.919, 169.241 111.055 C 176.057 105.700, 177.217 105.119, 178.946 106.198 C 181.365 107.709, 182.741 106.598, 181.020 104.524 C 180.034 103.336, 180.019 102.682, 180.954 101.555 C 182.731 99.414, 181.818 95.639, 179.250 94.513 C 176.430 93.276, 176.451 91.995, 179.500 79 C 180.855 73.225, 181.972 66.368, 181.982 63.763 C 181.999 59.382, 182.283 58.846, 185.756 56.654 C 190.761 53.495, 196.253 47.296, 197.862 42.993 C 198.579 41.072, 199.579 38.719, 200.083 37.764 C 201.252 35.550, 201.293 23.989, 200.126 25.831 C 199.525 26.778, 199.113 26.314, 198.694 24.220 C 196.694 14.220, 181.938 7.914, 172.210 12.903 C 164.671 16.769, 160.994 23.274, 161.010 32.718 C 161.026 42.418, 167.915 53.270, 176.554 57.206 C 178.711 58.189, 179 58.962, 179 63.744 C 179 66.726, 178.125 72.617, 177.055 76.833 C 175.986 81.050, 174.795 86.922, 174.409 89.883 L 173.707 95.266 164.604 99.510 C 153.357 104.754, 148.300 106, 138.267 106 C 128.459 106, 121.240 104.149, 111.029 99.014 C 106.637 96.806, 101.674 95, 100 95 C 98.326 95, 93.363 96.806, 88.971 99.014 C 78.760 104.149, 71.541 106, 61.733 106 C 51.700 106, 46.643 104.754, 35.396 99.510 L 26.293 95.266 25.591 89.883 C 25.205 86.922, 24.014 81.050, 22.945 76.833 C 21.875 72.617, 21 66.726, 21 63.744 C 21 59.005, 21.300 58.184, 23.377 57.238 C 27.301 55.450, 32.913 50.005, 35.657 45.323 C 38.744 40.054, 39.879 30.194, 38.039 24.619 C 34.365 13.487, 22.074 8.058, 11.459 12.880 M 0.320 32 C 0.320 35.575, 0.502 37.038, 0.723 35.250 C 0.945 33.462, 0.945 30.538, 0.723 28.750 C 0.502 26.962, 0.320 28.425, 0.320 32 M 42.034 72.752 C 36.546 75.520, 34.861 79.448, 35.206 88.667 L 35.500 96.500 37.500 94.264 C 38.600 93.034, 40.634 88.984, 42.019 85.264 C 44.337 79.042, 44.791 78.475, 47.691 78.192 L 50.843 77.885 48.856 81.692 C 45.054 88.980, 48.110 97.926, 55.620 101.490 C 67.916 107.325, 81.074 92.834, 74.005 81.241 C 70.799 75.982, 66.445 73.818, 60.029 74.295 C 55.932 74.599, 53.796 74.237, 51.529 72.854 C 47.770 70.562, 46.403 70.548, 42.034 72.752 M 131.367 75.918 C 129.643 76.969, 127.593 78.743, 126.809 79.862 C 125.676 81.480, 124.073 81.956, 118.953 82.197 C 113.766 82.441, 112.456 82.839, 112.187 84.250 C 111.878 85.871, 113.372 86, 132.402 86 L 152.950 86 151.906 83.252 C 148.779 75.028, 138.718 71.435, 131.367 75.918 M 124 89.532 C 124 95.064, 129.774 101.405, 135.935 102.637 C 142.888 104.028, 151.194 98.281, 152.633 91.084 L 153.250 88 138.625 88 C 126.155 88, 124 88.226, 124 89.532" stroke="none" fill="black" fill-rule="evenodd"/>
</svg>