<svg xmlns="http://www.w3.org/2000/svg" class="injected-svg" id="svg-5a923daf-c6a9-4f5a-8d4b-0300f01d209e" height="70" width="70" viewBox="0 0 540 508"><g xmlns="http://www.w3.org/2000/svg" fill="#d68048" id="icon-svg">
	<path transform="translate(198.5, 130.5) scale(0.7,0.7)" d="M 66 58.247 C 56.606 61.503, 50.316 65.489, 43.494 72.507 C 38.793 77.342, 36.618 78.840, 33.494 79.392 C 22.250 81.380, 14.022 86.309, 11.376 92.643 C 10.491 94.761, 10 99.863, 10 106.944 C 10 116.185, 9.680 118.477, 8.004 121.226 C 5.004 126.145, 5.345 132.576, 8.902 138.185 C 10.498 140.702, 12.230 143.024, 12.749 143.345 C 14.101 144.181, 18.622 139.152, 20.447 134.782 C 22.590 129.653, 22.403 127.056, 19.500 121.596 C 17.289 117.437, 17 115.677, 17 106.347 L 17 95.800 20.300 92.500 C 23.198 89.602, 31.337 85.963, 32.400 87.090 C 32.613 87.315, 31.961 90.650, 30.951 94.500 C 29.398 100.422, 29.106 105.638, 29.058 128.384 C 28.995 157.581, 29.407 160.612, 34.238 166.473 C 38.986 172.233, 44.084 174.304, 54.750 174.804 L 64 175.239 64 162.119 L 64 149 84 149 L 104 149 104 162 L 104 175 120.500 175 L 137 175 137 161.601 L 137 148.202 153.750 147.851 C 169.685 147.517, 170.775 147.365, 176.161 144.720 C 182.417 141.648, 187.739 136.347, 191.147 129.795 C 192.875 126.474, 193.477 123.308, 193.804 115.836 C 194.189 107.002, 193.997 105.672, 191.561 100.336 C 188.337 93.276, 183.122 87.657, 176.783 84.414 C 174.189 83.086, 171.827 82, 171.533 82 C 171.240 82, 171 84.195, 171 86.878 C 171 90.208, 171.527 92.190, 172.663 93.128 C 175.688 95.625, 178.249 102.862, 177.506 106.818 C 175.842 115.692, 170.891 119.990, 162.329 119.996 L 157.159 120 156.829 101.750 C 156.507 83.893, 156.437 83.371, 153.560 77.513 C 149.810 69.874, 142.553 62.618, 135.236 59.188 L 129.500 56.500 101 56.247 C 73.675 56.004, 72.232 56.087, 66 58.247 M 110.882 70.381 C 97.840 75.041, 91.243 85.174, 92.234 99.023 C 92.802 106.972, 95.875 113.103, 101.693 117.898 C 105.559 121.085, 112.718 124, 116.678 124 L 119 124 119 96.500 L 119 69 116.750 69.044 C 115.513 69.068, 112.872 69.670, 110.882 70.381 M 135.448 92.440 C 133.891 94.816, 133.888 95.180, 135.408 97.500 C 137.418 100.568, 141.004 100.758, 143.562 97.932 C 145.270 96.044, 145.303 95.629, 143.935 93.182 C 141.838 89.428, 137.660 89.063, 135.448 92.440" stroke="none" fill-rule="evenodd"/>
</g><path xmlns="http://www.w3.org/2000/svg" id="SvgjsPath20697715" d="M1.30-14.69L1.30 0L2.60 0L11.70-10.41L11.70 0L14.15 0L14.15-14.69L12.85-14.69L3.75-4.29L3.75-14.69ZM28.55-5.89C27.90-3.67 26.04-2.23 23.76-2.23C20.86-2.23 18.83-4.58 18.83-7.35C18.83-10.24 20.94-12.48 23.76-12.48C26.03-12.48 27.93-10.97 28.55-8.83L30.88-9.55C29.93-12.74 27.02-14.71 23.76-14.71C19.53-14.71 16.28-11.41 16.28-7.35C16.28-3.24 19.61 0 23.76 0C27.06 0 29.98-2.04 30.88-5.16ZM40.56-14.71C38.81-12.84 37.08-10.96 35.33-9.10L35.33-14.71L32.87-14.71L32.87 0L35.33 0L35.33-7.58L41.69 0L44.66 0L37.60-8.39C39.56-10.50 41.53-12.60 43.50-14.71ZM50.21-14.70L50.21-4.49C50.21-3.93 50.01-3.45 49.62-3.06C49.22-2.66 48.74-2.46 48.17-2.46C47.82-2.46 47.49-2.54 47.18-2.72L45.99-0.57C46.67-0.19 47.40 0 48.18 0C49.42 0 50.48-0.44 51.35-1.31C52.22-2.18 52.66-3.24 52.66-4.48L52.66-12.43L57.83-12.43L57.83-0.01L60.27-0.01L60.27-14.70ZM75.01-12.48C77.95-12.45 79.88-10.10 79.88-7.36C79.88-4.48 77.76-2.24 75.01-2.24C72.05-2.24 70.13-4.65 70.13-7.36C70.13-10.23 72.26-12.48 75.01-12.48ZM75.01-14.71C71.26-14.69 68.31-12.10 67.72-8.49L65.34-8.49L65.34-14.70L62.89-14.70L62.89 0L65.34 0L65.34-6.21L67.72-6.21C68.43-2.46 71.38 0 75.01 0C79.13 0 82.38-3.29 82.38-7.36C82.38-11.49 79.06-14.71 75.01-14.71ZM92.63-14.70L92.63-8.29C91.53-7.80 90.41-7.54 89.21-7.54C87.27-7.54 86.19-8.35 86.19-10.29L86.19-14.67L83.74-14.67L83.74-9.91C83.74-6.70 85.78-5.27 88.90-5.27C90.22-5.27 91.46-5.53 92.63-5.93L92.63 0L95.09 0L95.09-14.70ZM97.70-14.69L97.70 0L99.00 0L108.10-10.41L108.10 0L110.55 0L110.55-14.69L109.25-14.69L100.15-4.29L100.15-14.69ZM112.37-14.71L112.37-12.43L117.52-12.43L117.52 0L119.97 0L119.97-12.43L125.12-12.43L125.12-14.71ZM126.94-14.70L126.94 0L136.98 0L136.98-2.27L129.39-2.27L129.39-6.90L135.12-6.90L135.12-9.18L129.39-9.18L129.39-12.43L136.98-12.43L136.98-14.70ZM142.29-14.70L142.29-4.49C142.29-3.93 142.09-3.45 141.70-3.06C141.30-2.66 140.82-2.46 140.25-2.46C139.90-2.46 139.57-2.54 139.26-2.72L138.07-0.57C138.75-0.19 139.48 0 140.26 0C141.50 0 142.56-0.44 143.43-1.31C144.30-2.18 144.74-3.24 144.74-4.48L144.74-12.43L149.91-12.43L149.91-0.01L152.35-0.01L152.35-14.70ZM157.41-6.23L161.69-6.23C162.88-6.23 163.88-5.40 163.88-4.26C163.88-3.02 162.76-2.27 161.68-2.27L157.41-2.27ZM157.41-8.46L157.41-14.69L154.97-14.69L154.97 0L161.97 0C164.41 0 166.28-1.75 166.28-4.26C166.28-6.76 164.37-8.46 161.97-8.46ZM177.69-14.70L177.69-9.18L170.43-9.18L170.43-14.70L167.99-14.70L167.99 0L170.43 0L170.43-6.89L177.69-6.89L177.69 0L180.14 0L180.14-14.70ZM184.83-7.35C184.83-10.16 186.82-12.47 189.76-12.47C192.55-12.47 194.68-10.29 194.68-7.35C194.68-4.54 192.71-2.24 189.76-2.24C186.85-2.24 184.83-4.57 184.83-7.35ZM182.28-7.35C182.28-3.34 185.40 0 189.76 0C193.78 0 197.23-3.00 197.23-7.35C197.23-11.29 194.20-14.70 189.76-14.70C185.68-14.70 182.28-11.58 182.28-7.35ZM212.61-14.70L212.61-8.29C211.51-7.80 210.39-7.54 209.19-7.54C207.25-7.54 206.18-8.35 206.18-10.29L206.18-14.67L203.72-14.67L203.72-9.91C203.72-6.70 205.77-5.27 208.88-5.27C210.21-5.27 211.45-5.53 212.61-5.93L212.61 0L215.08 0L215.08-14.70ZM217.68-14.70L217.68 0L227.72 0L227.72-2.27L220.13-2.27L220.13-6.90L225.85-6.90L225.85-9.18L220.13-9.18L220.13-12.43L227.72-12.43L227.72-14.70ZM233.03-14.70L233.03-4.49C233.03-3.93 232.83-3.45 232.44-3.06C232.04-2.66 231.55-2.46 230.99-2.46C230.64-2.46 230.30-2.54 230.00-2.72L228.81-0.57C229.48-0.19 230.22 0 231 0C232.24 0 233.30-0.44 234.17-1.31C235.04-2.18 235.48-3.24 235.48-4.48L235.48-12.43L240.65-12.43L240.65-0.01L243.09-0.01L243.09-14.70ZM247.78-7.35C247.78-10.16 249.76-12.47 252.71-12.47C255.50-12.47 257.63-10.29 257.63-7.35C257.63-4.54 255.66-2.24 252.71-2.24C249.80-2.24 247.78-4.57 247.78-7.35ZM245.23-7.35C245.23-3.34 248.35 0 252.71 0C256.73 0 260.18-3.00 260.18-7.35C260.18-11.29 257.15-14.70 252.71-14.70C248.63-14.70 245.23-11.58 245.23-7.35ZM264.77-6.23L269.05-6.23C270.22-6.23 271.24-5.40 271.24-4.26C271.24-3.02 270.10-2.27 269.04-2.27L264.77-2.27ZM264.77-8.46L264.77-12.42L272.26-12.42L272.26-14.69L262.33-14.69L262.33 0L269.34 0C271.77 0 273.64-1.76 273.64-4.26C273.64-6.76 271.72-8.46 269.33-8.46ZM275.72-14.69L275.72 0L277.02 0L286.11-10.41L286.11 0L288.57 0L288.57-14.69L287.26-14.69L278.17-4.29L278.17-14.69ZM290.39-14.71L290.39-12.43L295.54-12.43L295.54 0L297.99 0L297.99-12.43L303.14-12.43L303.14-14.71ZM312.99-14.70L312.99-8.29C311.88-7.80 310.77-7.54 309.57-7.54C307.63-7.54 306.55-8.35 306.55-10.29L306.55-14.67L304.10-14.67L304.10-9.91C304.10-6.70 306.14-5.27 309.26-5.27C310.58-5.27 311.82-5.53 312.99-5.93L312.99 0L315.45 0L315.45-14.70ZM318.06-14.69L318.06 0L319.36 0L328.45-10.41L328.45 0L330.90 0L330.90-14.69L329.60-14.69L320.51-4.29L320.51-14.69ZM341.20-14.71C339.45-12.84 337.71-10.96 335.97-9.10L335.97-14.71L333.51-14.71L333.51 0L335.97 0L335.97-7.58L342.33 0L345.29 0L338.24-8.39C340.19-10.50 342.16-12.60 344.13-14.71ZM347.34-14.69L347.34 0L348.64 0L357.74-10.41L357.74 0L360.19 0L360.19-14.69L358.89-14.69L349.79-4.29L349.79-14.69Z" fill="#000000" fontsize="21" transform="matrix(1,0,0,1,88.75500000000001,302.855)"/></svg>