<svg xmlns="http://www.w3.org/2000/svg" width="70" height="70" viewBox="0 0 200 200" version="1.1">
	<path d="M 120 8.516 C 97.545 13.104, 83.809 24.280, 76.797 43.668 C 75.226 48.010, 74.536 52.932, 74.094 62.937 L 73.500 76.374 68.224 78.195 C 57.287 81.969, 46.993 82.184, 32.178 78.950 C 26.676 77.749, 25.512 77.763, 23.201 79.061 C 16.799 82.654, 9.041 96.941, 3.389 115.546 C 1.086 123.128, 0.657 126.415, 0.585 137 C 0.503 148.992, 0.626 149.764, 3.595 156 C 8.861 167.062, 17.797 174.104, 30.830 177.464 C 36.423 178.906, 44.525 179.062, 100.404 178.798 L 163.648 178.500 167.849 175.720 C 173.085 172.253, 180.160 162.765, 183.130 155.225 C 184.935 150.642, 185.387 147.506, 185.392 139.500 C 185.401 127.945, 183.559 121.694, 177.419 112.444 L 173.636 106.745 177.068 103.900 C 179.851 101.592, 181.480 101.049, 185.685 101.027 C 191.337 100.998, 195.516 99.748, 198.256 97.268 C 199.913 95.769, 199.698 95.377, 194.592 90.588 C 187.894 84.305, 186.495 80.090, 187.838 70.242 C 189.893 55.167, 180.617 32.949, 167.320 21.097 C 153.861 9.102, 137.901 4.858, 120 8.516 M 119.131 15.478 C 109.950 17.561, 100.815 22.158, 94.942 27.651 C 84.745 37.189, 81.008 47.147, 80.985 64.839 C 80.976 72.185, 80.506 77.419, 79.714 78.982 C 78.834 80.722, 76.220 82.339, 70.979 84.386 C 60.898 88.322, 45.224 89.109, 34.192 86.231 L 26.884 84.325 23.020 88.714 C 18.416 93.945, 12.753 106.894, 9.338 120 C 5.943 133.031, 6.307 146.974, 10.242 154.590 C 15.105 164.003, 24.682 170.096, 37.531 171.953 C 45.755 173.142, 67.875 173.241, 122.471 172.332 L 162.441 171.668 167.229 167.189 C 174.051 160.808, 178.174 151.972, 178.787 142.419 C 179.481 131.606, 177.137 123.795, 170.367 114.359 C 164.497 106.178, 164.034 104.620, 166.935 102.808 C 168.782 101.655, 168.738 101.519, 165.976 99.839 C 162.626 97.802, 159.324 91.880, 158.434 86.311 L 157.814 82.438 167.657 76.241 C 173.071 72.833, 178.620 69.164, 179.988 68.088 L 182.477 66.132 180.628 58.816 C 175.823 39.800, 165.294 25.220, 151.411 18.358 C 144.847 15.114, 143.062 14.687, 134.779 14.379 C 129.046 14.166, 123.066 14.586, 119.131 15.478 M 131.923 50.923 C 129.631 53.216, 129 54.742, 129 58 C 129 70.053, 146.889 71.888, 149.478 60.101 C 151.629 50.309, 139.092 43.754, 131.923 50.923 M 141.175 54.669 C 141.599 56.870, 145.500 57.169, 145.500 55 C 145.500 54.175, 144.447 53.351, 143.161 53.169 C 141.347 52.912, 140.901 53.249, 141.175 54.669 M 173.812 76.287 C 168.484 79.704, 164.230 82.900, 164.359 83.389 C 164.743 84.849, 177.146 91.968, 180.962 92.919 C 182.908 93.404, 186.523 94.093, 188.996 94.451 L 193.491 95.102 190.366 91.801 C 185.825 87.006, 184.690 84.302, 184.061 76.787 L 183.500 70.074 173.812 76.287 M 32.430 116.479 C 29.689 119.220, 29.756 120.354, 33.207 129.736 C 37.273 140.789, 45.137 150.017, 54.554 154.787 C 70.405 162.816, 99.646 157.508, 109.300 144.851 C 114.469 138.074, 115.098 132.193, 110.895 129.944 C 107.385 128.065, 104.183 129.632, 101.988 134.301 C 99.784 138.990, 94.115 143.277, 87.509 145.250 C 85.304 145.908, 79 146.459, 73.500 146.474 C 65.112 146.496, 62.855 146.151, 59.500 144.335 C 51.668 140.095, 45.609 131.782, 42.347 120.798 C 41.283 117.215, 40.226 115.656, 38.383 114.955 C 35.062 113.693, 35.270 113.639, 32.430 116.479" stroke="none" fill="white" fill-rule="evenodd"/>
</svg>