<svg xmlns="http://www.w3.org/2000/svg" viewBox="0 0 540 508" width="150" height="150" id="svg-b5a24069-675a-4ebd-b3e3-40debecdc805"><g fill="white" id="icon-svg">
	<path transform="translate(190, 98) scale(0.8,0.8)" d="M 120 8.516 C 97.545 13.104, 83.809 24.280, 76.797 43.668 C 75.226 48.010, 74.536 52.932, 74.094 62.937 L 73.500 76.374 68.224 78.195 C 57.287 81.969, 46.993 82.184, 32.178 78.950 C 26.676 77.749, 25.512 77.763, 23.201 79.061 C 16.799 82.654, 9.041 96.941, 3.389 115.546 C 1.086 123.128, 0.657 126.415, 0.585 137 C 0.503 148.992, 0.626 149.764, 3.595 156 C 8.861 167.062, 17.797 174.104, 30.830 177.464 C 36.423 178.906, 44.525 179.062, 100.404 178.798 L 163.648 178.500 167.849 175.720 C 173.085 172.253, 180.160 162.765, 183.130 155.225 C 184.935 150.642, 185.387 147.506, 185.392 139.500 C 185.401 127.945, 183.559 121.694, 177.419 112.444 L 173.636 106.745 177.068 103.900 C 179.851 101.592, 181.480 101.049, 185.685 101.027 C 191.337 100.998, 195.516 99.748, 198.256 97.268 C 199.913 95.769, 199.698 95.377, 194.592 90.588 C 187.894 84.305, 186.495 80.090, 187.838 70.242 C 189.893 55.167, 180.617 32.949, 167.320 21.097 C 153.861 9.102, 137.901 4.858, 120 8.516 M 119.131 15.478 C 109.950 17.561, 100.815 22.158, 94.942 27.651 C 84.745 37.189, 81.008 47.147, 80.985 64.839 C 80.976 72.185, 80.506 77.419, 79.714 78.982 C 78.834 80.722, 76.220 82.339, 70.979 84.386 C 60.898 88.322, 45.224 89.109, 34.192 86.231 L 26.884 84.325 23.020 88.714 C 18.416 93.945, 12.753 106.894, 9.338 120 C 5.943 133.031, 6.307 146.974, 10.242 154.590 C 15.105 164.003, 24.682 170.096, 37.531 171.953 C 45.755 173.142, 67.875 173.241, 122.471 172.332 L 162.441 171.668 167.229 167.189 C 174.051 160.808, 178.174 151.972, 178.787 142.419 C 179.481 131.606, 177.137 123.795, 170.367 114.359 C 164.497 106.178, 164.034 104.620, 166.935 102.808 C 168.782 101.655, 168.738 101.519, 165.976 99.839 C 162.626 97.802, 159.324 91.880, 158.434 86.311 L 157.814 82.438 167.657 76.241 C 173.071 72.833, 178.620 69.164, 179.988 68.088 L 182.477 66.132 180.628 58.816 C 175.823 39.800, 165.294 25.220, 151.411 18.358 C 144.847 15.114, 143.062 14.687, 134.779 14.379 C 129.046 14.166, 123.066 14.586, 119.131 15.478 M 131.923 50.923 C 129.631 53.216, 129 54.742, 129 58 C 129 70.053, 146.889 71.888, 149.478 60.101 C 151.629 50.309, 139.092 43.754, 131.923 50.923 M 141.175 54.669 C 141.599 56.870, 145.500 57.169, 145.500 55 C 145.500 54.175, 144.447 53.351, 143.161 53.169 C 141.347 52.912, 140.901 53.249, 141.175 54.669 M 173.812 76.287 C 168.484 79.704, 164.230 82.900, 164.359 83.389 C 164.743 84.849, 177.146 91.968, 180.962 92.919 C 182.908 93.404, 186.523 94.093, 188.996 94.451 L 193.491 95.102 190.366 91.801 C 185.825 87.006, 184.690 84.302, 184.061 76.787 L 183.500 70.074 173.812 76.287 M 32.430 116.479 C 29.689 119.220, 29.756 120.354, 33.207 129.736 C 37.273 140.789, 45.137 150.017, 54.554 154.787 C 70.405 162.816, 99.646 157.508, 109.300 144.851 C 114.469 138.074, 115.098 132.193, 110.895 129.944 C 107.385 128.065, 104.183 129.632, 101.988 134.301 C 99.784 138.990, 94.115 143.277, 87.509 145.250 C 85.304 145.908, 79 146.459, 73.500 146.474 C 65.112 146.496, 62.855 146.151, 59.500 144.335 C 51.668 140.095, 45.609 131.782, 42.347 120.798 C 41.283 117.215, 40.226 115.656, 38.383 114.955 C 35.062 113.693, 35.270 113.639, 32.430 116.479" stroke="none" fill-rule="evenodd"/>
</g><path xmlns="http://www.w3.org/2000/svg" id="SvgjsPath2120380" d="M6.42-58.59L6.04-52.55L13.58-51.15L14.41-50.03L14.41-43.90L9.77-10.04L8.83-8.93L2.42-4.93L2.42 0L28.27 0L28.74-6.04L20.37-7.35L19.53-8.46L19.53-16.83L22.23-44.64L23.34-44.64L36.73 0L44.55 0L46.96-10.70L56.92-44.64L57.94-44.64L60.64-17.67L60.82-9.95L60.08-8.74L52.92-4.93L52.92 0L78.68 0L79.24-6.04L72.63-7.35L71.80-8.37L67.52-48.45L68.36-49.66L76.07-53.48L76.07-58.59L52.55-58.59L41.20-18.97L40.27-18.97L28.83-59.05L19.72-58.59ZM104.16-41.01C92.91-41.01 84.16-31.71 84.16-20.00C84.16-7.07 91.33 1.02 103.60 1.02C114.85 1.02 123.60-8.28 123.60-20.00C123.60-32.83 116.44-41.01 104.16-41.01ZM103.42-32.83C109.65-32.83 113.37-27.62 113.37-20.00C113.37-15.62 112.53-11.72 110.76-9.11C109.09-7.91 106.76-7.07 104.35-7.07C98.11-7.07 94.39-12.28 94.39-20.00C94.39-24.18 95.23-28.18 97.00-30.88C98.67-32.09 101.00-32.83 103.42-32.83ZM167.49-18.60L167.49-22.41C167.49-33.76 161.54-41.01 150.85-41.01C139.31-41.01 130.94-31.81 130.94-20.00C130.94-6.88 138.10 1.02 150.01 1.02C157.08 1.02 163.12-1.02 167.49-5.21L164.98-10.32C160.98-8.46 156.61-7.35 152.15-7.35C145.36-7.35 141.08-10.70 141.08-17.95L149.92-17.58ZM141.08-23.99C141.08-26.60 141.82-29.02 143.13-30.97C144.99-32.55 147.50-33.20 149.92-33.20C154.57-33.20 157.26-30.04 157.36-25.02ZM202.55-59.05L202.00-52.73L210.74-51.06L211.57-49.76L211.11-37.76C210.55-26.32 208.51-17.48 205.53-11.81C203.76-10.51 201.72-9.86 199.39-9.86C197.90-9.86 196.42-10.04 195.02-10.51L192.79-0.46C194.93 0.46 197.72 0.84 200.60 0.84C205.72 0.84 210.18-1.40 212.88-5.58C216.97-12.09 219.29-22.23 220.04-38.32L220.50-49.66L221.43-50.69L234.92-50.22L234.92-10.23L233.99-8.93L224.97-5.02L224.97 0L253.24 0L253.70-5.86L246.45-7.35L245.52-8.46L245.52-48.27L246.17-49.57L253.42-53.66L253.42-58.59L216.78-58.59ZM279.93-41.01C268.68-41.01 259.93-31.71 259.93-20.00C259.93-7.07 267.10 1.02 279.37 1.02C290.62 1.02 299.37-8.28 299.37-20.00C299.37-32.83 292.21-41.01 279.93-41.01ZM279.19-32.83C285.42-32.83 289.14-27.62 289.14-20.00C289.14-15.62 288.30-11.72 286.53-9.11C284.86-7.91 282.53-7.07 280.12-7.07C273.88-7.07 270.16-12.28 270.16-20.00C270.16-24.18 271.00-28.18 272.77-30.88C274.44-32.09 276.77-32.83 279.19-32.83ZM305.97-39.99L305.60-34.50L311.08-33.29L311.92-32.09L311.92-9.21L311.27-8.09L305.13-4.09L305.13 0L332.10 0L332.47-5.49L322.62-6.97L321.87-8.00L321.87-32.55L330.34-32.83L333.13-32.83L333.78-21.58L340.57-21.39L342.98-39.71L342.24-40.55L331.82-39.99ZM369.21-41.01C357.96-41.01 349.21-31.71 349.21-20.00C349.21-7.07 356.38 1.02 368.65 1.02C379.90 1.02 388.65-8.28 388.65-20.00C388.65-32.83 381.49-41.01 369.21-41.01ZM368.47-32.83C374.70-32.83 378.42-27.62 378.42-20.00C378.42-15.62 377.58-11.72 375.81-9.11C374.14-7.91 371.81-7.07 369.40-7.07C363.16-7.07 359.44-12.28 359.44-20.00C359.44-24.18 360.28-28.18 362.05-30.88C363.72-32.09 366.05-32.83 368.47-32.83Z" fill="white" fontsize="93" transform="matrix(1,0,0,1,74.46500000000002,324.51500000000004)"/></svg>